<svg width="24" height="24" viewBox="0 0 24 24" fill="none" xmlns="http://www.w3.org/2000/svg">
<path d="M4.20847 17.8104L3.46185 17.7393L4.20847 17.8104ZM19.7914 17.8104L20.538 17.7393L19.7914 17.8104ZM17.8004 19.25C17.3862 19.25 17.0504 19.5858 17.0504 20C17.0504 20.4142 17.3862 20.75 17.8004 20.75V19.25ZM19.0295 9.81038L18.2828 9.88149L19.0295 9.81038ZM4.97037 9.81038L5.71699 9.88149L4.97037 9.81038ZM7.24993 11C7.24993 11.4142 7.58572 11.75 7.99993 11.75C8.41415 11.75 8.74993 11.4142 8.74993 11H7.24993ZM15.2499 11C15.2499 11.4142 15.5857 11.75 15.9999 11.75C16.4141 11.75 16.7499 11.4142 16.7499 11H15.2499ZM7.99993 8.75C8.41415 8.75 8.74993 8.41421 8.74993 8C8.74993 7.58579 8.41415 7.25 7.99993 7.25V8.75ZM11.9999 7.25C11.5857 7.25 11.2499 7.58579 11.2499 8C11.2499 8.41421 11.5857 8.75 11.9999 8.75V7.25ZM12.9999 20.75C13.4141 20.75 13.7499 20.4142 13.7499 20C13.7499 19.5858 13.4141 19.25 12.9999 19.25V20.75ZM18.2828 9.88149L19.0447 17.8815L20.538 17.7393L19.7761 9.73928L18.2828 9.88149ZM4.95509 17.8815L5.71699 9.88149L4.22375 9.73928L3.46185 17.7393L4.95509 17.8815ZM6.19946 19.25C5.46228 19.25 4.8852 18.6153 4.95509 17.8815L3.46185 17.7393C3.30809 19.3538 4.57767 20.75 6.19946 20.75V19.25ZM19.0447 17.8815C19.1146 18.6153 18.5375 19.25 17.8004 19.25V20.75C19.4222 20.75 20.6917 19.3538 20.538 17.7393L19.0447 17.8815ZM17.0385 8.75C17.6829 8.75 18.2217 9.23994 18.2828 9.88149L19.7761 9.73928C19.6417 8.32788 18.4562 7.25 17.0385 7.25V8.75ZM6.96136 7.25C5.54358 7.25 4.35817 8.32788 4.22375 9.73928L5.71699 9.88149C5.77809 9.23994 6.31692 8.75 6.96136 8.75V7.25ZM8.74993 7C8.74993 5.20507 10.205 3.75 11.9999 3.75V2.25C9.37658 2.25 7.24993 4.37665 7.24993 7H8.74993ZM11.9999 3.75C13.7948 3.75 15.2499 5.20507 15.2499 7H16.7499C16.7499 4.37665 14.6232 2.25 11.9999 2.25V3.75ZM7.24993 7V11H8.74993V7H7.24993ZM15.2499 7V11H16.7499V7H15.2499ZM6.96136 8.75H7.99993V7.25H6.96136V8.75ZM11.9999 8.75H17.0385V7.25H11.9999V8.75ZM12.9999 19.25H6.19946V20.75H12.9999V19.25Z" fill="white"/>
</svg>
