<svg width="9" height="9" viewBox="0 0 9 9" fill="none" xmlns="http://www.w3.org/2000/svg">
<path fill-rule="evenodd" clip-rule="evenodd" d="M5.11484 8.18978L5.11484 5.02705L8.27757 5.02705C8.56906 5.02705 8.80469 4.7909 8.80469 4.49993C8.80469 4.20896 8.56906 3.97281 8.27757 3.97281L5.11484 3.97281L5.11484 0.81008C5.11484 0.519109 4.87922 0.282959 4.58772 0.282959C4.29622 0.282959 4.0606 0.519109 4.0606 0.81008L4.0606 3.97281L0.89787 3.97281C0.606372 3.97281 0.370749 4.20896 0.370749 4.49993C0.370749 4.7909 0.606372 5.02705 0.89787 5.02705L4.0606 5.02705L4.0606 8.18978C4.0606 8.48075 4.29622 8.7169 4.58772 8.7169C4.87922 8.7169 5.11484 8.48075 5.11484 8.18978" fill="black"/>
</svg>
