<svg width="16" height="15" viewBox="0 0 16 15" fill="none" xmlns="http://www.w3.org/2000/svg">
<circle cx="8.01232" cy="7.60729" r="7.26818" fill="#00AC4E"/>
<path d="M8.32903 4.76318C6.58656 4.76318 5.16895 5.97186 5.16895 7.45757C5.16895 7.97698 5.34244 8.48004 5.6712 8.91493C5.60894 9.56727 5.44209 10.0516 5.19982 10.281C5.1678 10.3113 5.15979 10.3577 5.18001 10.396C5.19803 10.4303 5.23479 10.4513 5.27429 10.4513C5.27914 10.4513 5.28409 10.451 5.28904 10.4503C5.3317 10.4446 6.3227 10.3094 7.0394 9.91764C7.44652 10.0732 7.88009 10.1519 8.32903 10.1519C10.0715 10.1519 11.4891 8.94327 11.4891 7.45757C11.4891 5.97186 10.0715 4.76318 8.32903 4.76318Z" fill="white"/>
</svg>
